<?xml version="1.0" encoding="UTF-8"?>
<!DOCTYPE svg PUBLIC "-//W3C//DTD SVG 1.1//EN" "http://www.w3.org/Graphics/SVG/1.1/DTD/svg11.dtd">
<!-- Creator: CorelDRAW -->
<svg xmlns="http://www.w3.org/2000/svg" xml:space="preserve" width="150px" height="150px" version="1.1" style="shape-rendering:geometricPrecision; text-rendering:geometricPrecision; image-rendering:optimizeQuality; fill-rule:evenodd; clip-rule:evenodd"
viewBox="0 0 16.993 16.993"
 xmlns:xlink="http://www.w3.org/1999/xlink"
 xmlns:xodm="http://www.corel.com/coreldraw/odm/2003">
 <defs>
  <style type="text/css">
   <![CDATA[
    .fil12 {fill:none}
    .fil6 {fill:#213836}
    .fil1 {fill:#386246}
    .fil9 {fill:#6D9169}
    .fil11 {fill:#A32608}
    .fil8 {fill:#C14D2A}
    .fil7 {fill:#DD9380}
    .fil2 {fill:#F59481}
    .fil4 {fill:#FBF2F2}
    .fil5 {fill:white}
    .fil0 {fill:white}
    .fil10 {fill:white}
    .fil3 {fill:#8C2A13;fill-opacity:0.301961}
   ]]>
  </style>
   <clipPath id="id0">
    <path d="M8.497 0c4.692,0 8.496,3.804 8.496,8.497 0,4.692 -3.804,8.496 -8.496,8.496 -4.693,0 -8.497,-3.804 -8.497,-8.496 0,-4.693 3.804,-8.497 8.497,-8.497z"/>
   </clipPath>
 </defs>
 <g id="Capa_x0020_1">
  <metadata id="CorelCorpID_0Corel-Layer"/>
  <path class="fil0" d="M8.497 0c4.692,0 8.496,3.804 8.496,8.497 0,4.692 -3.804,8.496 -8.496,8.496 -4.693,0 -8.497,-3.804 -8.497,-8.496 0,-4.693 3.804,-8.497 8.497,-8.497z"/>
  <g style="clip-path:url(#id0)">
   <g id="_3010978636400">
    <g>
     <g>
      <path id="_1" class="fil1" d="M0.856 7.363c-0.003,0.454 3.334,0.772 7.516,0.71 4.254,-0.064 7.761,-0.496 7.766,-0.964 0.006,-0.469 -3.494,-0.784 -7.751,-0.706 -4.185,0.076 -7.529,0.506 -7.531,0.96z"/>
     </g>
     <g>
      <path class="fil2" d="M8.614 5.192c-3.434,-0.326 -5.706,2.565 -3.978,6.385 1.091,2.413 5.106,2.834 7.339,1.812 0.975,-0.447 2.193,-2.075 0.551,-2.699 -0.027,-2.353 -0.895,-5.211 -3.912,-5.498z"/>
     </g>
     <g>
      <path class="fil3" d="M11.641 13.526c0.11,-0.05 0.217,-0.104 0.321,-0.163 -0.698,0.242 -1.425,0.349 -2.148,0.359 -1.71,0.009 -3.673,-0.426 -4.702,-1.886 -0.524,-0.892 -0.814,-1.961 -0.797,-2.987 0.041,-2.253 1.816,-3.591 3.93,-3.679 -3.225,-0.092 -5.275,2.726 -3.609,6.407 1.038,2.297 4.728,2.789 7.005,1.949z"/>
     </g>
     <g>
      <path class="fil4" d="M11.975 13.389c1.255,-0.454 2.317,-2.201 0.618,-2.875 0,0 0.121,0.174 0.121,0.174 0.017,-1.868 -0.539,-4.045 -2.273,-5.031 -0.562,-0.321 -1.204,-0.463 -1.827,-0.465 1.984,0.349 3.092,1.794 3.499,3.692 0.148,0.631 0.208,1.286 0.231,1.938 0,0 0.116,0.043 0.116,0.043 1.464,0.471 0.385,2.02 -0.485,2.524z"/>
     </g>
     <path class="fil5" d="M6.82 9.779c0.113,0.75 0.68,1.283 1.267,1.191 0.59,-0.093 0.977,-0.778 0.864,-1.531 -0.113,-0.753 -0.683,-1.286 -1.272,-1.19 -0.587,0.096 -0.971,0.781 -0.859,1.53z"/>
     <path class="fil6" d="M8.951 9.439c-0.146,-0.56 -0.605,-1.196 -1.26,-1.107 -0.647,0.123 -0.896,0.87 -0.871,1.447 -0.178,-0.611 0.111,-1.482 0.846,-1.613 0.741,-0.109 1.275,0.631 1.285,1.273z"/>
     <path class="fil6" d="M7.674 9.789l0.565 -0.387c-0.139,-0.438 -0.502,-0.727 -0.875,-0.666 -0.425,0.068 -0.703,0.565 -0.621,1.108 0.081,0.543 0.492,0.929 0.917,0.862 0.349,-0.055 0.6,-0.397 0.634,-0.819l-0.62 -0.098z"/>
     <path class="fil5" d="M10.213 9.883c0.064,0.67 0.48,1.135 0.93,1.038 0.451,-0.097 0.765,-0.72 0.701,-1.393 -0.064,-0.673 -0.482,-1.138 -0.932,-1.039 -0.45,0.099 -0.763,0.723 -0.699,1.394z"/>
     <path class="fil6" d="M11.844 9.528c-0.099,-0.435 -0.414,-1.093 -0.96,-0.942 -0.506,0.2 -0.639,0.82 -0.671,1.297 -0.116,-0.516 0.035,-1.241 0.619,-1.458 0.662,-0.193 1.054,0.577 1.012,1.103z"/>
     <path class="fil6" d="M10.943 9.937l0.47 -0.382c-0.099,-0.416 -0.384,-0.682 -0.688,-0.616 -0.347,0.076 -0.588,0.557 -0.538,1.074 0.049,0.517 0.37,0.876 0.717,0.801 0.284,-0.061 0.497,-0.394 0.538,-0.797l-0.499 -0.08z"/>
     <path class="fil7" d="M6.328 10.833c-0.052,0.27 0.517,0.588 1.272,0.711 0.757,0.123 1.414,0.004 1.467,-0.268 0.052,-0.271 -0.522,-0.591 -1.28,-0.712 -0.755,-0.122 -1.408,-0.001 -1.459,0.269z"/>
     <path class="fil7" d="M9.937 11.222c0.046,0.215 0.578,0.284 1.19,0.153 0.613,-0.131 1.073,-0.414 1.027,-0.63 -0.047,-0.217 -0.582,-0.285 -1.195,-0.153 -0.611,0.132 -1.068,0.414 -1.022,0.63z"/>
     <path class="fil8" d="M9.396 10.952c0.001,0.072 0.14,0.127 0.311,0.122 0.171,-0.005 0.309,-0.068 0.308,-0.141 -0.001,-0.072 -0.14,-0.127 -0.311,-0.122 -0.171,0.005 -0.309,0.068 -0.308,0.141z"/>
     <path class="fil8" d="M5.895 11.038c-0.051,0.272 0.231,0.545 0.631,0.611 0.401,0.065 0.768,-0.103 0.821,-0.376 0.052,-0.273 -0.232,-0.546 -0.633,-0.611 -0.401,-0.065 -0.767,0.104 -0.819,0.376z"/>
     <path class="fil8" d="M11.397 11.342c-0.044,0.225 0.191,0.45 0.525,0.504 0.334,0.055 0.64,-0.084 0.684,-0.309 0.044,-0.225 -0.192,-0.451 -0.526,-0.504 -0.334,-0.054 -0.64,0.085 -0.683,0.309z"/>
     <path class="fil6" d="M4.874 10.179c0,0 1.476,-1.645 1.654,-3.458 0,0 1.968,1.589 3.392,0.521 0,0 1.685,0.835 3.011,0.162 1.334,-0.676 -2.158,-4.002 -6.497,-2.143 0,0 -3.517,-0.08 -2.755,4.017l1.195 0.901z"/>
     <path class="fil7" d="M2.505 8.99c-0.398,0.52 -0.144,1.358 0.569,1.873 0.714,0.517 1.62,0.516 2.022,-0.005 0.403,-0.521 0.147,-1.364 -0.572,-1.881 -0.717,-0.515 -1.621,-0.508 -2.019,0.013z"/>
     <path class="fil3" d="M2.891 9.474c0.019,0.132 0.095,0.26 0.202,0.333 0.182,0.143 0.423,0.202 0.657,0.191 -0.161,-0.1 -0.335,-0.168 -0.488,-0.278 -0.155,-0.098 -0.26,-0.235 -0.283,-0.408 0.203,-0.246 0.615,-0.244 0.938,-0.197 -0.609,-0.312 -1.34,-0.041 -1.215,0.719 0.073,0.335 0.358,0.624 0.694,0.697 -0.353,-0.205 -0.63,-0.614 -0.519,-1.014 0.004,-0.016 0.01,-0.029 0.014,-0.043z"/>
     <g>
      <g>
       <path class="fil9" d="M13.09 6.399c0,0 -1.205,-2.525 -1.46,-2.81 -0.726,-0.814 -5.427,-0.57 -6.711,0.203 -0.672,0.405 -1.364,2.89 -1.364,2.89l9.535 -0.283z"/>
      </g>
     </g>
     <g>
      <path class="fil10" d="M3.555 6.682c0.206,-0.38 0.396,-0.759 0.593,-1.13 0.286,-0.5 0.518,-1.06 0.945,-1.422 0.107,-0.052 0.221,-0.101 0.339,-0.139 0.981,-0.348 5.416,-0.936 6.198,-0.402 -0.726,-0.814 -5.427,-0.57 -6.711,0.203 -0.672,0.405 -1.364,2.89 -1.364,2.89z"/>
     </g>
     <g>
      <path class="fil10" d="M4.214 4.835c2.575,-0.349 5.25,-0.397 8.015,-0.182 0.409,0.8 0.861,1.746 0.861,1.746l-9.535 0.283c0,0 0.281,-1.01 0.659,-1.847z"/>
     </g>
     <path class="fil1" d="M4.647 4.779l-0.597 1.888 -0.495 0.015c0,0 0.281,-1.01 0.659,-1.847 0.144,-0.019 0.289,-0.038 0.433,-0.056z"/>
     <g>
      <g>
       <g>
        <path class="fil9" d="M3.79 6.63c0,0 -0.268,-0.8 -1.405,-1.165 0,0 0.666,0.893 1.405,1.165z"/>
       </g>
       <g>
        <path class="fil9" d="M3.641 6.558c0,0 -0.451,-0.508 -1.418,-0.439 0,0 0.778,0.459 1.418,0.439z"/>
       </g>
      </g>
      <g>
       <g>
        <path class="fil9" d="M12.717 6.604c0,0 0.216,-0.865 1.346,-1.412 0,0 -0.617,1.024 -1.346,1.412z"/>
       </g>
       <g>
        <path class="fil9" d="M12.863 6.508c0,0 0.421,-0.59 1.409,-0.66 0,0 -0.761,0.588 -1.409,0.66z"/>
       </g>
      </g>
      <g>
       <path class="fil9" d="M16.138 7.109c-0.117,-0.567 -3.152,-0.84 -3.75,-0.892 -2.601,-0.2 -5.216,-0.157 -7.809,0.131 -0.972,0.119 -1.949,0.261 -2.891,0.538 -0.271,0.092 -0.567,0.168 -0.783,0.365 -0.028,0.03 -0.052,0.071 -0.049,0.112 0.068,-0.22 0.66,-0.272 0.869,-0.315 0.957,-0.137 1.926,-0.181 2.892,-0.23 2.58,-0.114 5.166,-0.159 7.749,-0.133 0.56,0.029 3.656,-0.016 3.772,0.424z"/>
      </g>
     </g>
     <g>
      <path class="fil11" d="M9.707 11.348c-0.771,-0.063 -1.211,-0.732 -1.631,-0.269 -0.42,0.463 -0.037,1.709 1.183,1.858 1.668,0.204 2.026,-1.472 1.657,-1.751 -0.368,-0.278 -0.73,0.201 -1.209,0.162z"/>
     </g>
     <path class="fil8" d="M8.047 12.115c0.358,-0.143 0.871,-0.128 1.291,0.174 0.495,-0.156 0.954,0.035 1.209,0.317 -0.287,0.246 -0.709,0.402 -1.288,0.331 -0.616,-0.075 -1.018,-0.43 -1.212,-0.822z"/>
     <path class="fil5" d="M10.51 11.301c-0.069,0.344 -0.544,0.54 -1.063,0.437 -0.501,-0.1 -0.858,-0.442 -0.819,-0.776 0.287,0.103 0.626,0.349 1.079,0.386 0.302,0.025 0.558,-0.157 0.798,-0.225 0.014,0.06 0.016,0.121 0.005,0.178z"/>
    </g>
   </g>
  </g>
  <path class="fil12" d="M8.497 0c4.692,0 8.496,3.804 8.496,8.497 0,4.692 -3.804,8.496 -8.496,8.496 -4.693,0 -8.497,-3.804 -8.497,-8.496 0,-4.693 3.804,-8.497 8.497,-8.497z"/>
 </g>
</svg>
